<?xml version="1.0" standalone="no"?>
<!DOCTYPE svg PUBLIC "-//W3C//DTD SVG 20010904//EN"
 "http://www.w3.org/TR/2001/REC-SVG-20010904/DTD/svg10.dtd">
<svg version="1.0" xmlns="http://www.w3.org/2000/svg"
 width="1254.000000pt" height="1254.000000pt" viewBox="0 0 1254.000000 1254.000000"
 preserveAspectRatio="xMidYMid meet">
<metadata>
Created by potrace 1.16, written by Peter Selinger 2001-2019
</metadata>
<g transform="translate(0.000000,1254.000000) scale(0.100000,-0.100000)"
fill="#0a0a0a" stroke="none">
<path d="M9835 10860 l-570 -208 -1020 -574 c-561 -316 -1248 -702 -1528 -858
l-507 -285 -19 -65 c-11 -36 -61 -216 -111 -400 -50 -184 -138 -506 -196 -715
-290 -1051 -304 -1106 -288 -1112 14 -5 200 102 829 477 182 108 481 286 665
395 184 109 416 246 515 305 320 190 1642 963 1925 1125 151 87 276 159 278
161 9 7 622 1929 622 1949 0 8 -6 15 -12 14 -7 0 -269 -94 -583 -209z"/>
<path d="M5435 8502 c-330 -186 -730 -412 -890 -502 -319 -180 -852 -481
-1212 -683 -128 -72 -233 -135 -233 -141 0 -6 139 -84 308 -174 169 -89 480
-255 692 -368 620 -331 779 -414 796 -414 18 0 499 282 526 309 10 10 59 172
123 411 58 217 126 469 151 560 292 1072 357 1321 347 1331 -5 5 -273 -141
-608 -329z"/>
<path d="M8170 7376 c-234 -134 -621 -355 -860 -492 -239 -138 -733 -421
-1097 -629 -365 -209 -663 -384 -663 -390 0 -5 137 -91 303 -189 282 -168 928
-562 1061 -648 33 -21 65 -38 73 -38 7 0 228 123 491 273 262 151 684 392 937
537 253 144 467 270 476 279 9 9 66 138 127 286 61 149 172 416 247 595 209
498 257 622 247 632 -10 10 -102 13 -622 22 l-295 5 -425 -243z"/>
<path d="M2996 7063 c-11 -12 -7 -1941 5 -1948 10 -7 150 71 769 430 168 97
455 263 638 368 218 126 331 197 329 206 -1 8 -110 73 -242 143 -315 170 -627
338 -745 403 -77 43 -647 351 -726 393 -12 6 -24 8 -28 5z"/>
<path d="M4844 5994 c-80 -48 -678 -393 -1384 -799 -190 -109 -354 -206 -365
-217 -23 -21 -48 6 299 -325 l169 -161 -71 -79 c-40 -44 -72 -87 -72 -96 0 -9
21 -49 47 -89 43 -68 205 -326 385 -613 41 -66 103 -166 137 -222 34 -56 68
-106 76 -113 10 -8 97 37 402 212 213 122 487 279 608 348 l220 126 3 927 2
927 -37 23 c-41 26 -347 187 -354 187 -3 0 -32 -16 -65 -36z"/>
<path d="M5410 4900 c0 -673 3 -850 13 -850 6 0 62 28 122 63 1511 867 1325
758 1325 773 0 12 -421 274 -755 471 -484 285 -673 393 -688 393 -16 0 -17
-62 -17 -850z"/>
<path d="M6935 4727 c-22 -13 -308 -178 -635 -367 -327 -188 -678 -391 -780
-450 -102 -59 -394 -227 -650 -375 -638 -368 -625 -360 -625 -375 0 -7 41 -38
90 -68 411 -253 701 -437 1115 -709 52 -35 103 -63 112 -63 10 0 237 158 505
352 686 494 1313 946 1478 1063 l140 100 71 215 c47 141 68 219 62 227 -5 6
-55 37 -111 69 -56 32 -236 135 -399 231 -163 95 -305 173 -315 173 -10 0 -36
-11 -58 -23z"/>
</g>
</svg>
