<?xml version="1.0" encoding="UTF-8" standalone="no"?>
<!-- Created with Inkscape (http://www.inkscape.org/) -->

<svg
   width="499.99997"
   height="500"
   viewBox="0 0 499.99997 500"
   version="1.1"
   id="svg1"
   xmlns="http://www.w3.org/2000/svg"
   xmlns:svg="http://www.w3.org/2000/svg">
  <defs
     id="defs1" />
  <g
     id="layer1"
     transform="translate(-289.99997,-290)">
    <rect
       style="fill:#ffc738;fill-opacity:1;stroke:#ffc738;stroke-width:14.5631;stroke-linecap:round;stroke-linejoin:round;stroke-miterlimit:0;stroke-opacity:1"
       id="rect6"
       width="485.43689"
       height="485.43689"
       x="297.28152"
       y="297.28156"
       ry="97.087402" />
    <g
       id="g8"
       transform="matrix(-2.4751388,0.29357303,0.28566348,2.4084524,1309.7449,-8.0374292)"
       style="stroke:#000000;stroke-width:5.2811;stroke-dasharray:none;stroke-opacity:1">
      <path
         id="path157-7-0-6-1"
         style="fill:#6f646e;fill-opacity:0;stroke:#000000;stroke-width:5.2811;stroke-dasharray:none;stroke-opacity:1;paint-order:normal"
         d="m 329.65581,204.63158 c 16.70778,5.94597 39.50842,19.53828 54.48264,10.64634 m -29.18675,-1.56257 -20.992,35.84157 m 51.21403,-35.71418 -20.992,35.84157 m -15.40148,-77.25919 -38.36486,65.50381 m 13.77359,-72.5515 -31.8076,54.30802" />
      <path
         id="path12"
         style="fill:#000000;fill-opacity:0;stroke:#000000;stroke-width:5.2811;stroke-linecap:round;stroke-miterlimit:4.1;stroke-dasharray:none;stroke-opacity:1"
         d="m 355.5571,146.01427 a 34.201605,31.445031 0 0 0 -31.96359,20.48388 52.688505,39.103064 29.183501 0 1 30.6313,8.59316 52.990657,38.850351 29.97658 0 0 -5.81175,-2.95306 28.924586,28.337054 0 0 1 22.5476,-10.67926 28.924586,28.337054 0 0 1 16.76322,5.32241 34.201605,31.445031 0 0 0 -32.16678,-20.76713 z m -0.44539,29.56508 a 52.688505,39.103064 29.183501 0 1 2.03166,1.29568 52.990657,38.850351 29.97658 0 0 -1.7191,-1.12344 52.990657,38.850351 29.97658 0 0 -0.31256,-0.17224 z m 16.24319,-13.77872 a 28.924586,28.337054 0 0 0 -22.5476,10.67926 52.990657,38.850351 29.97658 0 1 7.01121,3.61334 52.990657,38.850351 29.97658 0 1 29.15247,38.96397 28.924586,28.337054 0 0 0 15.30784,-24.92018 28.924586,28.337054 0 0 0 -28.92392,-28.33639 z m 9.98464,74.47429 a 52.990656,38.85035 29.97658 0 1 -65.75565,6.15054 52.990656,38.85035 29.97658 0 1 -25.37327,-60.24351 52.990656,38.85035 29.97658 0 1 65.75566,-6.15055 52.990656,38.85035 29.97658 0 1 25.37326,60.24352 z m -97.79803,-78.74849 a 19.04422,19.576848 89.999998 0 0 -19.57824,19.04468 19.04422,19.576848 89.999998 0 0 19.57824,19.04468 19.04422,19.576848 89.999998 0 0 2.42822,-0.16843 52.990657,38.850351 29.97658 0 1 4.1278,-13.59212 52.990657,38.850351 29.97658 0 1 12.09038,-11.06203 19.04422,19.576848 89.999998 0 0 -18.6464,-13.26678 z m -0.11141,10.70227 a 2.6434187,2.589724 0 0 1 -2.64343,2.58973 2.6434187,2.589724 0 0 1 -2.6434,-2.58973 2.6434187,2.589724 0 0 1 2.64341,-2.58972 2.6434187,2.589724 0 0 1 2.64342,2.58972 z m 31.15291,-27.72947 -20.39661,18.46918 c -0.15141,0.16318 -0.30283,0.32637 -0.45425,0.48954 m 6.85943,-27.45898 -8.31309,26.12386 m 29.64702,-20.30374 a 4.0008222,3.9195552 0 0 1 -4.00082,3.91956 4.0008222,3.9195552 0 0 1 -4.00083,-3.91957 4.0008222,3.9195552 0 0 1 4.00083,-3.91954 4.0008222,3.9195552 0 0 1 4.00082,3.91955 z m -16.37914,-10.49306 a 4.0008222,3.9195552 0 0 1 -4.00083,3.91955 4.0008222,3.9195552 0 0 1 -4.00082,-3.91956 4.0008222,3.9195552 0 0 1 4.00082,-3.91955 4.0008222,3.9195552 0 0 1 4.00083,3.91956 z" />
      <ellipse
         style="fill:#000000;fill-opacity:1;stroke:#000000;stroke-width:5.2811;stroke-linecap:round;stroke-miterlimit:4.1;stroke-dasharray:none;stroke-opacity:1"
         id="path34"
         cx="280.36877"
         cy="168.33371"
         rx="2.000411"
         ry="1.9597776" />
    </g>
  </g>
</svg>
